<svg aria-hidden="true" style="position: absolute; width: 0; height: 0; overflow: hidden;" version="1.1" xmlns="http://www.w3.org/2000/svg" xmlns:xlink="http://www.w3.org/1999/xlink">
<defs>
<symbol id="icon-header-telegram" viewBox="0 0 32 32">
<path fill="#fff" style="fill: #fff" opacity="0.8" d="M29.793 15.448c0 7.617-6.176 13.793-13.793 13.793s-13.793-6.176-13.793-13.793c0-7.617 6.176-13.793 13.793-13.793s13.793 6.176 13.793 13.793zM16.494 11.838c-1.341 0.557-4.023 1.713-8.044 3.464-0.653 0.26-0.995 0.514-1.026 0.762-0.053 0.421 0.474 0.586 1.188 0.81 0.098 0.031 0.199 0.062 0.302 0.097 0.705 0.229 1.652 0.497 2.144 0.507 0.447 0.009 0.946-0.175 1.497-0.552 3.756-2.537 5.695-3.818 5.817-3.846 0.086-0.020 0.206-0.045 0.286 0.028 0.080 0.071 0.072 0.207 0.064 0.244-0.053 0.222-2.115 2.14-3.184 3.133-0.333 0.309-0.569 0.529-0.617 0.579-0.108 0.112-0.218 0.218-0.324 0.321-0.655 0.63-1.145 1.103 0.028 1.876 0.563 0.371 1.014 0.678 1.463 0.984 0.491 0.334 0.98 0.668 1.615 1.084 0.161 0.106 0.315 0.215 0.465 0.322 0.571 0.408 1.085 0.774 1.72 0.716 0.368-0.035 0.749-0.381 0.943-1.414 0.456-2.444 1.355-7.736 1.563-9.917 0.013-0.181 0.005-0.363-0.023-0.543-0.017-0.145-0.087-0.278-0.198-0.374-0.164-0.134-0.42-0.163-0.535-0.161-0.518 0.009-1.314 0.286-5.145 1.879z"></path>
</symbol>
<symbol id="icon-header-facebook" viewBox="0 0 32 32">
<path fill="#fff" style="fill: #fff" opacity="0.8" d="M18.78 28.961c6.285-1.286 11.013-6.847 11.013-13.513 0-7.618-6.175-13.793-13.793-13.793s-13.793 6.175-13.793 13.793c0 6.598 4.633 12.114 10.823 13.472v-9.967h-3.099v-4.101h3.099v-3.503c0-2.753 1.83-5.281 6.048-5.281 1.708 0 2.97 0.159 2.97 0.159l-0.099 3.83c0 0-1.288-0.012-2.693-0.012-1.521 0-1.765 0.681-1.765 1.812v2.995h4.578l-0.199 4.101h-4.379v10.208c0.436-0.047 0.866-0.114 1.289-0.201z"></path>
</symbol>
<symbol id="icon-hero-planet" viewBox="0 0 32 32">
<path fill="#fff" style="fill: var(--color1, #fff)" opacity="0.9" d="M16.792 2.701l0.046-0.665-0.904-0.063 0.209 0.881 0.649-0.154zM28.268 11.334l0.23 0.626 0.625-0.23-0.229-0.625-0.626 0.229zM16.838 2.899v0zM17.163 3.503v0zM17.407 3.764v0zM17.666 5.030v0zM17.621 5.154v0zM18.28 6.568v0zM18.999 7.723v0zM18.864 8.978v0zM19.217 10.032v0zM20.302 11.191v0zM21.536 11.587v0zM24.343 11.026v0zM24.802 11.015v0zM27.542 11.426v0zM28.2 11.359v0zM8.534 26.847l-0.371 0.554 0.357 0.239 0.365-0.227-0.352-0.566zM9.535 4.285l0.454-0.488-0.352-0.328-0.422 0.231 0.32 0.585zM10.469 5.155v0zM10.735 5.5v0zM11.34 6.625l-0.587 0.315 0.020 0.038 0.025 0.035 0.542-0.388zM12.509 8.257v0zM12.836 10.803v0zM13.104 11.551v0zM12.552 13.133v0zM11.45 13.817v0zM11.245 13.974v0zM9.922 15.205v0zM8.382 16.638v0zM8.003 17.96v0zM8.404 19.456v0zM8.784 20.086v0zM9.684 20.924v0zM10.031 21.451v0zM10.631 23.125v0zM10.977 24.091v0zM10.424 25.673v0zM15.555 17.35v0zM16.628 16.375v0zM15.377 19.125v0zM16.019 20.001v0zM16.261 20.996v0zM15.966 22.876v0zM16.013 23.353v0zM17.254 23.913v0zM18.892 23.275v0zM19.521 22.767v0zM20.484 21.308v0zM20.627 21.128v0zM21.996 19.675v0zM21.777 17.659v0zM21.387 17.393l0.376-0.551-0.015-0.010-0.015-0.009-0.346 0.57zM20.312 16.742v0zM19.917 16.582v0zM18.447 16.248l-0.193 0.638 0.023 0.007 0.023 0.005 0.148-0.65zM17.911 16.085v0zM16.746 3.367c5.024 0.347 9.235 3.657 10.896 8.197l1.252-0.458c-1.837-5.021-6.494-8.684-12.056-9.069l-0.092 1.33zM16.143 2.855l0.047 0.198 1.297-0.308-0.047-0.198-1.297 0.308zM16.19 3.053c0.080 0.339 0.248 0.651 0.486 0.906l0.973-0.911c-0.079-0.085-0.135-0.189-0.162-0.302l-1.297 0.308zM16.676 3.959l0.244 0.26 0.973-0.911-0.244-0.26-0.973 0.911zM16.92 4.219c0.146 0.156 0.193 0.382 0.119 0.583l1.253 0.456c0.245-0.673 0.091-1.427-0.399-1.95l-0.973 0.911zM17.039 4.802l-0.045 0.124 1.253 0.456 0.045-0.124-1.253-0.456zM16.994 4.926c-0.334 0.918 0.139 1.934 1.058 2.268l0.456-1.253c-0.226-0.082-0.343-0.333-0.261-0.559l-1.253-0.456zM18.052 7.195c0.189 0.069 0.306 0.257 0.285 0.457l1.326 0.143c0.087-0.809-0.389-1.574-1.154-1.852l-0.456 1.253zM18.337 7.651l-0.135 1.255 1.326 0.143 0.135-1.255-1.326-0.143zM18.201 8.907c-0.062 0.579 0.131 1.156 0.529 1.581l0.973-0.911c-0.133-0.142-0.197-0.334-0.176-0.527l-1.326-0.143zM18.73 10.488l1.085 1.158 0.973-0.911-1.085-1.158-0.973 0.911zM19.815 11.647c0.473 0.505 1.173 0.73 1.852 0.594l-0.261-1.307c-0.226 0.045-0.46-0.030-0.617-0.198l-0.973 0.911zM21.667 12.241l2.807-0.561-0.261-1.307-2.807 0.561 0.261 1.307zM24.473 11.679c0.076-0.015 0.153-0.017 0.23-0.006l0.198-1.319c-0.229-0.034-0.462-0.029-0.689 0.017l0.261 1.307zM24.703 11.674l2.74 0.411 0.198-1.319-2.74-0.411-0.198 1.319zM27.443 12.085c0.332 0.050 0.672 0.015 0.987-0.101l-0.46-1.251c-0.105 0.039-0.218 0.050-0.329 0.034l-0.198 1.319zM28.43 11.985l0.068-0.025-0.46-1.251-0.068 0.025 0.46 1.251zM8.905 26.293c-3.36-2.25-5.57-6.078-5.57-10.423h-1.333c0 4.808 2.448 9.044 6.162 11.531l0.742-1.108zM3.334 15.87c0-4.742 2.634-8.87 6.521-11l-0.641-1.169c-4.297 2.354-7.214 6.921-7.214 12.169h1.333zM10.923 4.667l-0.934-0.87-0.908 0.976 0.934 0.87 0.908-0.976zM11.323 5.184c-0.104-0.193-0.239-0.368-0.399-0.518l-0.908 0.976c0.054 0.050 0.099 0.108 0.133 0.173l1.175-0.631zM11.927 6.31l-0.605-1.125-1.175 0.631 0.605 1.125 1.175-0.631zM13.051 7.869l-1.169-1.632-1.084 0.776 1.169 1.632 1.084-0.776zM13.425 9.033c0-0.418-0.131-0.825-0.374-1.165l-1.084 0.776c0.081 0.113 0.125 0.249 0.125 0.388h1.333zM13.425 10.354v-1.32h-1.333v1.32h1.333zM13.464 10.578c-0.026-0.072-0.039-0.148-0.039-0.225h-1.333c0 0.23 0.040 0.458 0.117 0.674l1.255-0.45zM13.732 11.326l-0.268-0.748-1.255 0.45 0.268 0.748 1.255-0.45zM12.903 13.7c0.801-0.497 1.146-1.486 0.828-2.374l-1.255 0.45c0.106 0.296-0.009 0.626-0.276 0.791l0.703 1.133zM11.802 14.383l1.101-0.683-0.703-1.133-1.101 0.683 0.703 1.133zM11.699 14.462c0.032-0.029 0.066-0.056 0.103-0.078l-0.703-1.133c-0.11 0.068-0.213 0.147-0.308 0.235l0.908 0.976zM10.376 15.693l1.323-1.232-0.908-0.976-1.323 1.232 0.908 0.976zM8.836 17.126l1.54-1.433-0.908-0.976-1.54 1.433 0.908 0.976zM8.647 17.787c-0.064-0.238 0.009-0.493 0.19-0.661l-0.908-0.976c-0.542 0.505-0.761 1.268-0.569 1.983l1.288-0.346zM9.048 19.283l-0.402-1.495-1.288 0.346 0.402 1.495 1.288-0.346zM9.238 19.598c-0.091-0.085-0.157-0.194-0.19-0.315l-1.288 0.346c0.097 0.362 0.294 0.69 0.569 0.945l0.908-0.976zM10.139 20.436l-0.901-0.838-0.908 0.976 0.901 0.838 0.908-0.976zM10.659 21.226c-0.108-0.301-0.286-0.572-0.52-0.79l-0.908 0.976c0.078 0.073 0.137 0.163 0.173 0.263l1.255-0.45zM11.259 22.9l-0.6-1.675-1.255 0.45 0.6 1.675 1.255-0.45zM11.604 23.866l-0.346-0.966-1.255 0.45 0.346 0.966 1.255-0.45zM10.776 26.24c0.801-0.497 1.146-1.486 0.828-2.374l-1.255 0.45c0.106 0.296-0.009 0.626-0.276 0.791l0.703 1.133zM8.885 27.413l1.891-1.173-0.703-1.133-1.891 1.173 0.703 1.133zM16.004 17.843l1.072-0.975-0.897-0.987-1.072 0.975 0.897 0.987zM15.915 18.731c-0.202-0.275-0.163-0.658 0.089-0.888l-0.897-0.987c-0.757 0.688-0.873 1.837-0.267 2.663l1.075-0.788zM16.557 19.606l-0.642-0.876-1.075 0.788 0.642 0.876 1.075-0.788zM16.92 21.099c0.083-0.526-0.048-1.064-0.363-1.493l-1.075 0.788c0.105 0.143 0.149 0.322 0.121 0.498l1.317 0.207zM16.624 22.98l0.295-1.88-1.317-0.207-0.296 1.88 1.317 0.207zM16.638 23.123c-0.017-0.046-0.022-0.095-0.014-0.143l-1.317-0.207c-0.043 0.272-0.015 0.551 0.079 0.809l1.252-0.459zM17.012 23.292c-0.15 0.058-0.318-0.018-0.373-0.169l-1.252 0.459c0.312 0.852 1.264 1.281 2.109 0.952l-0.484-1.242zM18.65 22.653l-1.638 0.638 0.484 1.242 1.638-0.638-0.484-1.242zM18.965 22.399c-0.076 0.115-0.186 0.204-0.314 0.254l0.484 1.242c0.386-0.15 0.715-0.416 0.943-0.762l-1.113-0.734zM19.928 20.941l-0.963 1.459 1.113 0.734 0.963-1.459-1.113-0.734zM20.142 20.67c-0.079 0.084-0.151 0.174-0.214 0.27l1.113 0.734c0.021-0.032 0.045-0.062 0.071-0.090l-0.97-0.915zM21.511 19.218l-1.369 1.452 0.97 0.915 1.369-1.452-0.97-0.915zM21.401 18.21c0.339 0.231 0.391 0.71 0.11 1.008l0.97 0.915c0.844-0.895 0.688-2.332-0.329-3.024l-0.751 1.102zM21.012 17.944l0.389 0.266 0.751-1.102-0.389-0.266-0.751 1.102zM19.967 17.312l1.075 0.652 0.691-1.14-1.075-0.652-0.691 1.14zM19.769 17.232c0.070 0.016 0.137 0.043 0.198 0.080l0.691-1.14c-0.184-0.111-0.384-0.192-0.593-0.24l-0.295 1.3zM18.3 16.898l1.469 0.334 0.295-1.3-1.469-0.334-0.295 1.3zM17.718 16.723l0.536 0.162 0.387-1.276-0.536-0.162-0.387 1.276zM17.076 16.868c0.174-0.158 0.417-0.213 0.642-0.145l0.387-1.276c-0.674-0.204-1.405-0.039-1.925 0.434l0.897 0.987z"></path>
<path fill="none" opacity="0.9" stroke="#fff" style="stroke: var(--color1, #fff)" stroke-linejoin="miter" stroke-linecap="butt" stroke-miterlimit="4" stroke-width="1.3333" d="M29.067 15.87c0 7.29-5.91 13.2-13.2 13.2s-13.2-5.91-13.2-13.2c0-7.29 5.91-13.2 13.2-13.2s13.2 5.91 13.2 13.2z"></path>
</symbol>
<symbol id="icon-hero-device" viewBox="0 0 32 32">
<path fill="none" opacity="0.9" stroke="#fff" style="stroke: var(--color1, #fff)" stroke-linejoin="miter" stroke-linecap="butt" stroke-miterlimit="4" stroke-width="1.3333" d="M14.444 22.27c-3.944 0-7.748 0-10.18 0-1.473 0-2.666-1.194-2.666-2.667v-12.267c0-1.473 1.19-2.667 2.663-2.667 5.050 0 16.033 0 21.872 0 1.473 0 2.665 1.194 2.665 2.667v4"></path>
<path fill="#fff" style="fill: var(--color1, #fff)" opacity="0.9" d="M9.215 25.81c-0.338 0.146-0.493 0.539-0.347 0.876s0.539 0.493 0.877 0.347l-0.529-1.224zM14.374 24.472c-1.076 0-2.385 0.351-3.377 0.675-0.506 0.165-0.949 0.33-1.266 0.454-0.159 0.062-0.286 0.114-0.375 0.15-0.044 0.018-0.079 0.033-0.103 0.043-0.012 0.005-0.021 0.009-0.028 0.012-0.003 0.001-0.006 0.003-0.008 0.003s-0.002 0.001-0.002 0.001-0 0-0.001 0-0 0-0 0-0 0 0.264 0.612 0.265 0.612 0.264 0.612 0 0 0 0 0 0 0-0 0.001-0 0.001-0 0.003-0.001 0.005-0.002 0.013-0.005 0.023-0.010c0.021-0.009 0.052-0.022 0.092-0.039 0.081-0.034 0.201-0.082 0.35-0.14 0.3-0.117 0.719-0.273 1.196-0.428 0.975-0.318 2.113-0.609 2.963-0.609v-1.333z"></path>
<path fill="none" opacity="0.9" stroke="#fff" style="stroke: var(--color1, #fff)" stroke-linejoin="miter" stroke-linecap="butt" stroke-miterlimit="4" stroke-width="1.3333" d="M24.444 26.67h-8.047c-1.105 0-2-0.895-2-2v-14c0-1.105 0.895-2 2-2h10.4c1.105 0 2 0.895 2 2v2.222"></path>
<path fill="none" opacity="0.9" stroke="#fff" style="stroke: var(--color1, #fff)" stroke-linejoin="miter" stroke-linecap="round" stroke-miterlimit="4" stroke-width="1.3333" d="M20.498 23.384h1.4"></path>
<path fill="none" opacity="0.9" stroke="#fff" style="stroke: var(--color1, #fff)" stroke-linejoin="miter" stroke-linecap="butt" stroke-miterlimit="4" stroke-width="1.3333" d="M23.875 14.902c0-1.105 0.895-2 2-2h2.969c1.105 0 2 0.895 2 2v9.933c0 1.105-0.895 2-2 2h-2.969c-1.105 0-2-0.895-2-2v-9.933z"></path>
<path fill="none" opacity="0.9" stroke="#fff" style="stroke: var(--color1, #fff)" stroke-linejoin="miter" stroke-linecap="round" stroke-miterlimit="4" stroke-width="1.3333" d="M26.86 24.304h0.996"></path>
</symbol>
<symbol id="icon-hero-gift" viewBox="0 0 32 32">
<path fill="none" opacity="0.9" stroke="#fff" style="stroke: var(--color1, #fff)" stroke-linejoin="round" stroke-linecap="round" stroke-miterlimit="4" stroke-width="1.3333" d="M26.24 16v10.133c0 1.473-1.194 2.667-2.667 2.667h-15.147c-1.473 0-2.667-1.194-2.667-2.667v-10.133M16 28.8v-19.2M16 9.6h-5.76c-0.849 0-1.663-0.337-2.263-0.937s-0.937-1.414-0.937-2.263 0.337-1.663 0.937-2.263c0.6-0.6 1.414-0.937 2.263-0.937 4.48 0 5.76 6.4 5.76 6.4zM16 9.6h5.76c0.849 0 1.663-0.337 2.263-0.937s0.937-1.414 0.937-2.263-0.337-1.663-0.937-2.263c-0.6-0.6-1.414-0.937-2.263-0.937-4.48 0-5.76 6.4-5.76 6.4zM5.867 16h20.267c1.473 0 2.667-1.194 2.667-2.667v-1.067c0-1.473-1.194-2.667-2.667-2.667h-20.267c-1.473 0-2.667 1.194-2.667 2.667v1.067c0 1.473 1.194 2.667 2.667 2.667z"></path>
</symbol>
<symbol id="icon-hero-tv" viewBox="0 0 32 32">
<path fill="none" opacity="0.9" stroke="#fff" style="stroke: var(--color1, #fff)" stroke-linejoin="round" stroke-linecap="round" stroke-miterlimit="4" stroke-width="1.3333" d="M22.667 2.67l-6.667 6.667-6.667-6.667M5.334 9.336h21.333c1.473 0 2.667 1.194 2.667 2.667v14.667c0 1.473-1.194 2.667-2.667 2.667h-21.333c-1.473 0-2.667-1.194-2.667-2.667v-14.667c0-1.473 1.194-2.667 2.667-2.667z"></path>
<path fill="none" opacity="0.9" stroke="#fff" style="stroke: var(--color1, #fff)" stroke-linejoin="round" stroke-linecap="round" stroke-miterlimit="4" stroke-width="1.3333" d="M9.723 14.687h12.962"></path>
<path fill="none" opacity="0.9" stroke="#fff" style="stroke: var(--color1, #fff)" stroke-linejoin="round" stroke-linecap="round" stroke-miterlimit="4" stroke-width="1.3333" d="M9.723 19.446h12.962"></path>
<path fill="none" opacity="0.9" stroke="#fff" style="stroke: var(--color1, #fff)" stroke-linejoin="round" stroke-linecap="round" stroke-miterlimit="4" stroke-width="1.3333" d="M9.723 24.205h12.962"></path>
</symbol>
</defs>
</svg>
